<svg data-v-fde0c5aa="" xmlns="http://www.w3.org/2000/svg" viewBox="0 0 300 300" class="iconLeft"><!----><defs data-v-fde0c5aa=""><!----></defs><rect data-v-fde0c5aa="" fill="#00242C" x="0" y="0" width="300px" height="300px" class="logo-background-square"></rect><defs data-v-fde0c5aa=""><!----></defs><g data-v-fde0c5aa="" id="276850bc-4a3e-4177-8561-162897a1c27b" fill="#FFFFFF" transform="matrix(1.879601338524192,0,0,1.879601338524192,79.93418312043711,130.27358506355566)"><path d="M7.01 4.03L7.01 14.52L5.78 14.52L5.65 13.58Q5.23 14.62 3.47 14.62L3.47 14.62Q2.99 14.62 2.62 14.56Q2.25 14.50 1.98 14.35Q1.71 14.20 1.52 14.04Q1.33 13.88 1.20 13.57Q1.07 13.27 1.00 13.02Q0.93 12.77 0.90 12.33Q0.86 11.88 0.85 11.55Q0.85 11.22 0.85 10.65L0.85 10.65Q0.85 10.10 0.86 9.69Q0.88 9.29 0.93 8.89Q0.98 8.50 1.07 8.23Q1.16 7.96 1.30 7.70Q1.44 7.45 1.64 7.30Q1.85 7.14 2.13 7.02Q2.41 6.90 2.77 6.86Q3.13 6.81 3.59 6.81L3.59 6.81Q4.47 6.81 4.96 7.04Q5.45 7.28 5.66 7.79L5.66 7.79L5.66 4.14L7.01 4.03ZM5.66 12.78L5.66 12.78L5.66 8.79Q5.66 8.20 5.29 7.97Q4.92 7.75 3.90 7.75L3.90 7.75Q3.11 7.75 2.73 7.87L2.73 7.87Q2.41 7.96 2.30 8.43Q2.19 8.90 2.19 9.69L2.19 9.69Q2.19 10.85 2.24 12.93L2.24 12.93Q2.27 13.38 2.60 13.53Q2.93 13.69 3.90 13.69L3.90 13.69Q4.86 13.69 5.24 13.49Q5.62 13.30 5.66 12.78ZM9.08 7.02L10.42 7.02L10.42 14.10Q10.42 15.47 10.05 16.03Q9.68 16.58 8.68 16.58L8.68 16.58Q8.38 16.58 7.96 16.53L7.96 16.53L7.92 15.70Q8.00 15.69 8.16 15.69Q8.31 15.69 8.40 15.69Q8.48 15.68 8.61 15.66Q8.73 15.64 8.80 15.59Q8.87 15.54 8.94 15.47Q9.02 15.39 9.05 15.26Q9.08 15.13 9.08 14.96L9.08 14.96L9.08 7.02ZM9.07 4.12L10.43 4.12L10.43 5.30L9.07 5.30L9.07 4.12ZM17.90 9.56L17.90 14.52L16.83 14.52L16.61 13.45Q16.41 14.15 15.87 14.39Q15.33 14.62 14.30 14.62L14.30 14.62Q13.62 14.62 13.18 14.49Q12.74 14.36 12.48 14.04Q12.22 13.73 12.12 13.27Q12.02 12.82 12.02 12.10L12.02 12.10Q12.02 11.78 12.14 11.53Q12.25 11.27 12.44 11.09Q12.64 10.92 12.96 10.79Q13.29 10.66 13.64 10.58Q13.99 10.51 14.48 10.46Q14.98 10.42 15.45 10.40Q15.92 10.39 16.55 10.39L16.55 10.39L16.55 8.36Q16.55 8.01 16.22 7.88Q15.89 7.75 15.05 7.75L15.05 7.75Q14.46 7.75 14.17 7.77Q13.88 7.80 13.72 7.93Q13.57 8.07 13.55 8.20Q13.52 8.33 13.51 8.68L13.51 8.68Q13.51 8.81 13.51 8.89L13.51 8.89L12.46 8.85Q12.45 8.74 12.45 8.52L12.45 8.52Q12.45 8.07 12.58 7.75Q12.71 7.43 12.93 7.25Q13.14 7.07 13.51 6.97Q13.88 6.86 14.24 6.84Q14.60 6.81 15.14 6.81L15.14 6.81Q15.96 6.81 16.47 6.94Q16.99 7.06 17.32 7.39Q17.64 7.72 17.77 8.23Q17.90 8.74 17.90 9.56L17.90 9.56ZM16.55 12.37L16.55 12.37L16.55 11.20Q15.20 11.20 14.48 11.31Q13.75 11.41 13.51 11.59Q13.27 11.77 13.27 12.10L13.27 12.10Q13.27 12.11 13.27 12.14L13.27 12.14Q13.27 13.18 13.44 13.43Q13.61 13.69 14.49 13.69L14.49 13.69Q15.23 13.69 15.70 13.51Q16.16 13.33 16.34 13.05Q16.52 12.78 16.55 12.37ZM25.90 10.36L25.90 14.52L24.55 14.52L24.55 9.98Q24.55 9.54 24.55 9.28Q24.55 9.02 24.52 8.75Q24.50 8.48 24.47 8.35Q24.45 8.22 24.37 8.08Q24.30 7.95 24.23 7.90Q24.15 7.85 24.01 7.81Q23.86 7.77 23.72 7.76Q23.58 7.75 23.34 7.75L23.34 7.75Q22.82 7.75 22.45 7.81Q22.09 7.87 21.85 7.97Q21.62 8.07 21.50 8.26Q21.37 8.44 21.32 8.66Q21.27 8.87 21.27 9.19L21.27 9.19Q21.27 9.37 21.29 9.81Q21.31 10.25 21.31 10.52L21.31 10.52L21.31 14.52L19.97 14.52L19.97 7.02L21.20 7.02L21.33 7.86Q21.51 7.30 22.11 7.05Q22.72 6.81 23.56 6.81L23.56 6.81Q23.96 6.81 24.27 6.86Q24.58 6.90 24.81 7.02Q25.05 7.13 25.23 7.27Q25.40 7.42 25.52 7.65Q25.64 7.89 25.72 8.13Q25.79 8.38 25.83 8.75Q25.87 9.12 25.89 9.48Q25.90 9.85 25.90 10.36L25.90 10.36ZM32.66 7.02L33.89 7.02L33.89 13.57Q33.89 14.25 33.84 14.71Q33.80 15.18 33.68 15.58Q33.56 15.98 33.35 16.23Q33.15 16.47 32.81 16.65Q32.47 16.82 32.01 16.89Q31.55 16.96 30.91 16.96L30.91 16.96Q29.57 16.96 28.78 16.68L28.78 16.68L28.87 15.75Q29.63 15.96 30.69 15.96L30.69 15.96Q31.19 15.96 31.53 15.91Q31.88 15.85 32.07 15.77Q32.27 15.69 32.37 15.53Q32.48 15.38 32.51 15.23Q32.54 15.08 32.54 14.85L32.54 14.85L32.53 13.62Q32.35 14.10 31.90 14.32Q31.45 14.54 30.63 14.54L30.63 14.54Q30.04 14.54 29.60 14.46Q29.16 14.38 28.85 14.25Q28.55 14.13 28.35 13.87Q28.14 13.60 28.03 13.37Q27.91 13.13 27.86 12.69Q27.80 12.25 27.79 11.90Q27.77 11.55 27.77 10.94L27.77 10.94Q27.77 10.17 27.79 9.73Q27.80 9.29 27.85 8.78Q27.90 8.27 28.01 8.01Q28.12 7.75 28.29 7.48Q28.46 7.21 28.75 7.10Q29.03 6.98 29.40 6.90Q29.78 6.83 30.31 6.83L30.31 6.83Q31.21 6.83 31.75 7.07Q32.29 7.31 32.53 7.85L32.53 7.85L32.66 7.02ZM32.54 13.00L32.54 13.00L32.54 8.83Q32.54 8.25 32.16 8.00Q31.78 7.75 30.80 7.75L30.80 7.75Q29.85 7.75 29.49 7.92L29.49 7.92Q29.11 8.11 29.11 9.42L29.11 9.42Q29.11 11.40 29.16 12.87L29.16 12.87Q29.18 13.19 29.33 13.34Q29.48 13.49 29.83 13.55Q30.19 13.60 30.95 13.60L30.95 13.60Q32.47 13.60 32.54 13.00ZM38.92 13.68L38.92 13.68Q39.89 13.66 40.27 13.54Q40.65 13.41 40.65 13.05L40.65 13.05Q40.73 12.07 40.73 10.79L40.73 10.79Q40.73 10.36 40.69 9.57Q40.66 8.78 40.66 8.40L40.66 8.40Q40.66 8.29 40.62 8.19Q40.58 8.09 40.50 8.03Q40.41 7.96 40.33 7.92Q40.24 7.87 40.09 7.84Q39.94 7.81 39.83 7.79Q39.72 7.77 39.53 7.77Q39.33 7.76 39.23 7.76Q39.12 7.76 38.92 7.76Q38.71 7.76 38.61 7.76Q38.50 7.76 38.31 7.77Q38.11 7.77 38.00 7.79Q37.90 7.81 37.74 7.84Q37.59 7.87 37.51 7.92Q37.42 7.96 37.33 8.03Q37.25 8.09 37.21 8.19Q37.17 8.29 37.17 8.40L37.17 8.40Q37.17 8.78 37.14 9.57Q37.11 10.36 37.11 10.79L37.11 10.79Q37.11 12.07 37.18 13.05L37.18 13.05Q37.18 13.41 37.58 13.55Q37.98 13.68 38.92 13.68ZM38.91 14.62L38.91 14.62Q38.15 14.62 37.65 14.56Q37.14 14.50 36.77 14.29Q36.41 14.08 36.22 13.85Q36.03 13.61 35.92 13.10Q35.81 12.59 35.78 12.09Q35.76 11.59 35.76 10.71L35.76 10.71Q35.76 10.04 35.78 9.60Q35.79 9.15 35.85 8.73Q35.92 8.30 36.01 8.04Q36.10 7.77 36.27 7.54Q36.45 7.30 36.67 7.18Q36.89 7.05 37.23 6.96Q37.56 6.87 37.96 6.84Q38.36 6.81 38.92 6.81Q39.47 6.81 39.87 6.84Q40.27 6.87 40.61 6.96Q40.95 7.05 41.17 7.18Q41.38 7.30 41.56 7.54Q41.73 7.77 41.83 8.04Q41.92 8.30 41.98 8.73Q42.04 9.15 42.06 9.60Q42.08 10.04 42.08 10.71L42.08 10.71Q42.08 11.59 42.05 12.09Q42.03 12.59 41.92 13.10Q41.81 13.61 41.61 13.85Q41.42 14.09 41.05 14.29Q40.69 14.50 40.18 14.56Q39.68 14.62 38.91 14.62ZM47.84 10.84L43.83 10.84L43.83 9.89L47.84 9.89L47.84 10.84ZM51.17 7.02L51.17 14.52L49.83 14.52L49.83 7.02L51.17 7.02ZM49.83 4.12L51.17 4.12L51.17 5.30L49.83 5.30L49.83 4.12ZM59.29 4.03L59.29 14.52L58.06 14.52L57.93 13.58Q57.52 14.62 55.75 14.62L55.75 14.62Q55.28 14.62 54.91 14.56Q54.54 14.50 54.27 14.35Q54.00 14.20 53.81 14.04Q53.61 13.88 53.49 13.57Q53.36 13.27 53.29 13.02Q53.22 12.77 53.18 12.33Q53.15 11.88 53.14 11.55Q53.14 11.22 53.14 10.65L53.14 10.65Q53.14 10.10 53.15 9.69Q53.17 9.29 53.22 8.89Q53.27 8.50 53.36 8.23Q53.44 7.96 53.59 7.70Q53.73 7.45 53.93 7.30Q54.13 7.14 54.41 7.02Q54.69 6.90 55.06 6.86Q55.42 6.81 55.88 6.81L55.88 6.81Q56.76 6.81 57.25 7.04Q57.74 7.28 57.95 7.79L57.95 7.79L57.95 4.14L59.29 4.03ZM57.95 12.78L57.95 12.78L57.95 8.79Q57.95 8.20 57.58 7.97Q57.21 7.75 56.19 7.75L56.19 7.75Q55.40 7.75 55.02 7.87L55.02 7.87Q54.70 7.96 54.59 8.43Q54.48 8.90 54.48 9.69L54.48 9.69Q54.48 10.85 54.52 12.93L54.52 12.93Q54.56 13.38 54.89 13.53Q55.22 13.69 56.19 13.69L56.19 13.69Q57.15 13.69 57.53 13.49Q57.91 13.30 57.95 12.78ZM67.18 10.66L67.18 10.66Q66.36 10.75 66.16 10.76L66.16 10.76L62.43 10.76Q62.44 11.75 62.49 12.93L62.49 12.93Q62.52 13.39 62.88 13.54Q63.24 13.69 64.28 13.69L64.28 13.69Q64.67 13.69 64.95 13.65Q65.23 13.62 65.40 13.55Q65.58 13.47 65.68 13.40Q65.78 13.32 65.82 13.17Q65.87 13.02 65.88 12.91Q65.90 12.80 65.91 12.59Q65.93 12.37 65.95 12.24L65.95 12.24L66.99 12.43Q66.98 12.91 66.92 13.24Q66.87 13.57 66.74 13.82Q66.61 14.08 66.43 14.22Q66.25 14.37 65.95 14.46Q65.65 14.56 65.29 14.59Q64.93 14.62 64.39 14.62L64.39 14.62Q63.71 14.62 63.21 14.54Q62.70 14.46 62.34 14.35Q61.98 14.23 61.75 13.97Q61.52 13.71 61.38 13.47Q61.25 13.23 61.19 12.76Q61.13 12.30 61.11 11.92Q61.09 11.54 61.09 10.87L61.09 10.87Q61.09 9.93 61.12 9.40Q61.14 8.87 61.25 8.34Q61.36 7.81 61.54 7.57Q61.73 7.33 62.09 7.13Q62.45 6.92 62.95 6.87Q63.44 6.81 64.20 6.81L64.20 6.81Q64.72 6.81 65.11 6.84Q65.49 6.87 65.81 6.97Q66.13 7.06 66.34 7.18Q66.55 7.31 66.71 7.55Q66.87 7.79 66.95 8.04Q67.04 8.30 67.09 8.72Q67.15 9.15 67.16 9.58Q67.18 10.01 67.18 10.66ZM62.44 10.04L62.44 10.04L65.83 10.04Q65.82 9.17 65.76 8.44L65.76 8.44Q65.73 8.03 65.40 7.89Q65.07 7.75 64.19 7.75L64.19 7.75Q63.21 7.75 62.95 7.85L62.95 7.85Q62.84 7.89 62.75 7.97Q62.67 8.06 62.61 8.22Q62.56 8.37 62.52 8.51Q62.49 8.65 62.48 8.89Q62.46 9.13 62.45 9.27Q62.45 9.40 62.44 9.67Q62.44 9.95 62.44 10.04ZM74.93 10.36L74.93 14.52L73.58 14.52L73.58 9.98Q73.58 9.54 73.58 9.28Q73.58 9.02 73.55 8.75Q73.53 8.48 73.50 8.35Q73.47 8.22 73.40 8.08Q73.33 7.95 73.25 7.90Q73.18 7.85 73.04 7.81Q72.89 7.77 72.75 7.76Q72.60 7.75 72.37 7.75L72.37 7.75Q71.85 7.75 71.48 7.81Q71.11 7.87 70.88 7.97Q70.65 8.07 70.52 8.26Q70.40 8.44 70.35 8.66Q70.30 8.87 70.30 9.19L70.30 9.19Q70.30 9.37 70.32 9.81Q70.34 10.25 70.34 10.52L70.34 10.52L70.34 14.52L69.00 14.52L69.00 7.02L70.23 7.02L70.36 7.86Q70.53 7.30 71.14 7.05Q71.75 6.81 72.59 6.81L72.59 6.81Q72.99 6.81 73.29 6.86Q73.60 6.90 73.84 7.02Q74.08 7.13 74.26 7.27Q74.43 7.42 74.55 7.65Q74.67 7.89 74.74 8.13Q74.82 8.38 74.86 8.75Q74.90 9.12 74.92 9.48Q74.93 9.85 74.93 10.36L74.93 10.36ZM79.97 13.57L79.97 13.57L79.94 14.53Q79.37 14.62 78.90 14.62L78.90 14.62Q78.40 14.62 78.08 14.51Q77.75 14.40 77.59 14.16Q77.42 13.92 77.36 13.63Q77.30 13.34 77.30 12.89L77.30 12.89L77.30 7.79L76.28 7.79L76.28 7.02L77.30 7.02L77.30 4.89L78.64 4.78L78.64 7.02L80.02 7.02L80.02 7.79L78.64 7.79L78.64 12.43Q78.64 13.17 78.71 13.39Q78.78 13.61 79.11 13.61L79.11 13.61Q79.42 13.61 79.97 13.57ZM83.13 7.02L83.13 14.52L81.79 14.52L81.79 7.02L83.13 7.02ZM81.79 4.12L83.13 4.12L83.13 5.30L81.79 5.30L81.79 4.12ZM88.26 13.57L88.26 13.57L88.23 14.53Q87.66 14.62 87.19 14.62L87.19 14.62Q86.69 14.62 86.37 14.51Q86.04 14.40 85.88 14.16Q85.72 13.92 85.65 13.63Q85.59 13.34 85.59 12.89L85.59 12.89L85.59 7.79L84.57 7.79L84.57 7.02L85.59 7.02L85.59 4.89L86.93 4.78L86.93 7.02L88.31 7.02L88.31 7.79L86.93 7.79L86.93 12.43Q86.93 13.17 87.00 13.39Q87.08 13.61 87.40 13.61L87.40 13.61Q87.71 13.61 88.26 13.57ZM94.42 7.02L95.80 7.02L93.43 14.16Q93.34 14.42 93.25 14.78Q93.15 15.15 93.08 15.37Q93.02 15.60 92.92 15.87Q92.82 16.14 92.70 16.30Q92.59 16.46 92.42 16.61Q92.24 16.75 92.00 16.82Q91.77 16.88 91.45 16.88L91.45 16.88Q90.64 16.88 89.97 16.73L89.97 16.73L90.18 15.69Q90.31 15.70 90.53 15.74Q90.75 15.78 90.91 15.80Q91.07 15.82 91.21 15.82L91.21 15.82Q91.64 15.82 91.87 15.52Q92.09 15.22 92.10 14.40L92.10 14.40L89.29 7.02L90.65 7.02L92.03 10.83Q92.41 11.87 92.73 12.79L92.73 12.79Q92.96 11.96 93.39 10.51L93.39 10.51L94.42 7.02Z"></path></g><defs data-v-fde0c5aa=""><!----></defs><g data-v-fde0c5aa="" id="b3570bcf-39aa-4395-9266-2bcb13033056" stroke="none" fill="#81E291" transform="matrix(0.9510293094848916,0,0,0.9510293094848916,-40.83748405043798,54.897065423621925)"><path d="M100.666 95.834a.667.667 0 10-1.332 0c0 6.771-4.846 12.448-11.521 13.499a.667.667 0 00.206 1.316c7.329-1.154 12.647-7.383 12.647-14.815z"></path><path d="M100 80.834c-8.271 0-15 6.729-15 15a.666.666 0 101.333 0c0-7.537 6.131-13.668 13.668-13.668 7.536 0 13.668 6.131 13.668 13.668 0 3.064-.494 6.077-1.47 8.954a.664.664 0 00.631.879.668.668 0 00.632-.452 29.18 29.18 0 001.539-9.381c-.001-8.271-6.73-15-15.001-15z"></path><path d="M103.532 95.834A3.536 3.536 0 00100 92.302a3.536 3.536 0 00-3.534 3.532 10.758 10.758 0 01-9.734 10.747.667.667 0 00.131 1.327 12.087 12.087 0 0010.935-12.073c0-1.213.988-2.2 2.202-2.2 1.213 0 2.2.987 2.2 2.2 0 7.647-5.412 14.429-12.867 16.126a.667.667 0 10.296 1.298c8.056-1.834 13.903-9.161 13.903-17.425zM100.604 116.966c-.021-.024-.045-.051-.065-.077a.667.667 0 00-.911-.164c-.604.404-1.19.764-1.79 1.094a.667.667 0 00.645 1.166 24.57 24.57 0 001.391-.828c.242.271.5.546.77.814a.662.662 0 00.471.195.665.665 0 00.472-1.136 15.615 15.615 0 01-.983-1.064zM103.342 110.811a12.256 12.256 0 01-1.058-2.979.667.667 0 00-1.183-.264 19.302 19.302 0 01-9.725 6.808.667.667 0 00.393 1.272 20.586 20.586 0 009.557-6.242c.223.693.499 1.365.827 2.011a13.81 13.81 0 004.647 5.21.667.667 0 10.722-1.121 12.481 12.481 0 01-4.18-4.695z"></path><path d="M111.404 111.141a6.564 6.564 0 01-3.661-5.902c0-.545.067-1.092.202-1.621a23.26 23.26 0 001.113-4.652 23.33 23.33 0 00.207-3.13c0-5.109-4.158-9.266-9.267-9.266-5.109 0-9.266 4.157-9.266 9.266 0 2.77-2.251 5.042-5.019 5.063a.668.668 0 00.005 1.334h.006c3.496-.029 6.34-2.899 6.34-6.397 0-4.375 3.559-7.934 7.934-7.934s7.935 3.559 7.935 7.934c0 1.009-.065 2.002-.195 2.953a22.015 22.015 0 01-1.059 4.415l-.017.054a7.886 7.886 0 00-.253 1.982 7.891 7.891 0 004.4 7.094.668.668 0 00.894-.3.663.663 0 00-.299-.893z"></path><path d="M109.688 113.477a9.475 9.475 0 01-4.813-8.238c0-.82.107-1.641.32-2.439.32-.896.584-1.842.783-2.808.278-1.363.42-2.762.42-4.156a6.406 6.406 0 00-6.399-6.398c-3.529 0-6.401 2.871-6.401 6.398a7.917 7.917 0 01-7.555 7.925.666.666 0 00.062 1.33 9.247 9.247 0 008.826-9.254 5.072 5.072 0 015.068-5.066 5.072 5.072 0 015.067 5.066 19.483 19.483 0 01-1.139 6.553 10.78 10.78 0 005.106 12.248.662.662 0 00.906-.254.662.662 0 00-.251-.907z"></path><path d="M112.741 108.602a3.738 3.738 0 01-2.132-3.363c0-.275.031-.553.095-.824l.011-.027a25.707 25.707 0 00.992-3.816c.248-1.359.389-2.75.416-4.121.008-.202.011-.406.011-.613 0-6.691-5.442-12.134-12.134-12.134-6.691 0-12.134 5.443-12.134 12.134a2.21 2.21 0 01-2.17 2.2c-.368.005-.662.307-.657.675s.298.65.675.657a3.546 3.546 0 003.484-3.532c0-5.956 4.845-10.802 10.802-10.802 5.956 0 10.801 4.846 10.801 10.802 0 .19-.002.376-.01.574a24.424 24.424 0 01-.396 3.925 24.001 24.001 0 01-.926 3.578c-.014.034-.025.067-.037.103-.006.019-.012.035-.016.053a5.005 5.005 0 00-.141 1.173 5.077 5.077 0 002.895 4.565.666.666 0 00.887-.318.666.666 0 00-.316-.889zM102.795 115.117a15.321 15.321 0 01-1.592-2.247.666.666 0 00-1.012-.171 22.27 22.27 0 01-6.052 3.73.666.666 0 10.473 1.246 23.574 23.574 0 005.85-3.468 16.87 16.87 0 001.319 1.771 16.481 16.481 0 002.253 2.187.668.668 0 00.937-.102.668.668 0 00-.104-.938 14.752 14.752 0 01-2.072-2.008z"></path></g><!----></svg>