<svg data-v-fde0c5aa="" xmlns="http://www.w3.org/2000/svg" viewBox="0 0 300 300" class="iconAbove"><!----><defs data-v-fde0c5aa=""><!----></defs><rect data-v-fde0c5aa="" fill="transparent" x="0" y="0" width="300px" height="300px" class="logo-background-square"></rect><defs data-v-fde0c5aa=""><!----></defs><g data-v-fde0c5aa="" id="47aba0b1-4c38-4afe-9edf-7a9777fa8af0" fill="#000000" transform="matrix(3.0849549568796175,0,0,3.0849549568796175,17.871380903230524,182.75415313119754)"><path d="M4.59 10.68L4.59 10.68Q3.32 10.68 2.62 9.81L2.62 9.81L2.62 13.30L0.80 13.30L0.80 5.18L0.69 3.08L2.30 3.08L2.45 4.00Q3.16 2.90 4.59 2.90L4.59 2.90Q7.36 2.90 7.36 6.57L7.36 6.57L7.36 7.01Q7.36 8.71 6.70 9.70Q6.03 10.68 4.59 10.68ZM2.62 5.33L2.62 5.33L2.62 8.25Q3.15 9.09 4.07 9.09L4.07 9.09Q5.54 9.09 5.54 7.01L5.54 7.01L5.54 6.57Q5.54 4.48 4.07 4.48L4.07 4.48Q3.16 4.48 2.62 5.33ZM10.01 3.08L11.63 8.23L13.27 3.08L15.23 3.08L12.61 10.14L11.63 13.30L9.48 13.30L10.65 10.14L8.04 3.08L10.01 3.08ZM18.58 0.98L18.58 3.08L20.64 3.08L20.64 4.68L18.58 4.68L18.58 7.88Q18.58 8.58 18.87 8.83Q19.17 9.09 19.78 9.09L19.78 9.09Q20.30 9.09 20.50 8.99L20.50 8.99L20.50 10.50Q20.13 10.68 19.35 10.68L19.35 10.68Q16.76 10.68 16.76 8.08L16.76 8.08L16.76 4.68L15.62 4.68L15.62 3.08L16.76 3.08L16.76 0.98L18.58 0.98ZM22.01-0.70L23.83-0.70L23.83 3.84Q24.63 2.90 26.07 2.90L26.07 2.90Q27.22 2.90 27.78 3.61Q28.35 4.33 28.35 5.42L28.35 5.42L28.35 10.50L26.54 10.50L26.54 5.71Q26.54 5.15 26.25 4.82Q25.96 4.48 25.37 4.48L25.37 4.48Q24.35 4.48 23.83 5.33L23.83 5.33L23.83 10.50L22.01 10.50L22.01-0.70ZM35.46 9.68Q34.62 10.68 32.94 10.68Q31.26 10.68 30.42 9.68Q29.58 8.68 29.58 7.01L29.58 7.01L29.58 6.57Q29.58 4.89 30.42 3.89Q31.26 2.90 32.94 2.90Q34.62 2.90 35.46 3.89Q36.30 4.89 36.30 6.57L36.30 6.57L36.30 7.01Q36.30 8.68 35.46 9.68ZM31.40 7.01Q31.40 9.09 32.94 9.09Q34.48 9.09 34.48 7.01L34.48 7.01L34.48 6.57Q34.48 4.48 32.94 4.48Q31.40 4.48 31.40 6.57L31.40 6.57L31.40 7.01ZM43.97 5.42L43.97 10.50L42.17 10.50L42.17 5.71Q42.17 5.15 41.87 4.82Q41.58 4.48 40.99 4.48L40.99 4.48Q39.97 4.48 39.45 5.33L39.45 5.33L39.45 10.50L37.63 10.50L37.63 5.18L37.51 3.08L39.12 3.08L39.28 4.06Q40.08 2.90 41.69 2.90L41.69 2.90Q42.84 2.90 43.41 3.61Q43.97 4.33 43.97 5.42L43.97 5.42ZM48.97 6.40L45.26 6.40L45.26 4.80L48.97 4.80L48.97 6.40ZM52.81 0.98L52.81 3.08L54.87 3.08L54.87 4.68L52.81 4.68L52.81 7.88Q52.81 8.58 53.10 8.83Q53.40 9.09 54.01 9.09L54.01 9.09Q54.53 9.09 54.73 8.99L54.73 8.99L54.73 10.50Q54.36 10.68 53.58 10.68L53.58 10.68Q50.99 10.68 50.99 8.08L50.99 8.08L50.99 4.68L49.85 4.68L49.85 3.08L50.99 3.08L50.99 0.98L52.81 0.98ZM62.31 10.50L60.70 10.50L60.56 9.65Q59.67 10.68 58.14 10.68L58.14 10.68Q57.02 10.68 56.46 10.07Q55.90 9.45 55.90 8.50L55.90 8.50L55.90 8.36Q55.90 7.24 56.58 6.73Q57.26 6.22 58.49 6.03L58.49 6.03L60.38 5.74L60.38 5.71Q60.38 4.98 60.11 4.65Q59.84 4.31 59.15 4.31L59.15 4.31Q57.92 4.31 57.92 5.53L57.92 5.53L56.18 5.53L56.18 5.40Q56.18 4.33 56.87 3.61Q57.57 2.90 59.19 2.90L59.19 2.90Q60.84 2.90 61.52 3.61Q62.20 4.33 62.20 5.71L62.20 5.71L62.20 8.40L62.31 10.50ZM58.77 9.18L58.77 9.18Q59.81 9.18 60.38 8.41L60.38 8.41L60.38 6.85L58.83 7.10Q57.72 7.28 57.72 8.16L57.72 8.16L57.72 8.27Q57.72 8.65 57.99 8.92Q58.25 9.18 58.77 9.18ZM65.24 6.71L63.22 3.08L65.34 3.08L66.71 5.75L68.07 3.08L70.18 3.08L68.17 6.71L70.18 10.50L68.11 10.50L66.70 7.64L65.30 10.50L63.22 10.50L65.24 6.71ZM77.67 6.61L77.67 7.46L72.77 7.46Q72.87 9.27 74.44 9.27L74.44 9.27Q75.14 9.27 75.54 8.93Q75.95 8.58 75.95 8.12L75.95 8.12L77.67 8.12L77.67 8.18Q77.67 9.23 76.81 9.95Q75.95 10.68 74.42 10.68L74.42 10.68Q72.70 10.68 71.83 9.66Q70.95 8.64 70.95 6.97L70.95 6.97L70.95 6.61Q70.95 4.94 71.82 3.92Q72.69 2.90 74.35 2.90L74.35 2.90Q75.99 2.90 76.83 3.92Q77.67 4.94 77.67 6.61L77.67 6.61ZM74.31 4.31L74.31 4.31Q72.88 4.31 72.77 6.12L72.77 6.12L75.84 6.12Q75.75 4.31 74.31 4.31ZM81.87 9.27L81.87 9.27Q82.50 9.27 82.82 9.02Q83.15 8.76 83.15 8.34L83.15 8.34Q83.15 7.87 82.84 7.67Q82.53 7.46 81.73 7.39L81.73 7.39Q80.19 7.27 79.53 6.80Q78.88 6.33 78.88 5.35L78.88 5.35L78.88 5.24Q78.88 4.09 79.69 3.49Q80.51 2.90 81.87 2.90L81.87 2.90Q84.88 2.90 84.88 5.43L84.88 5.43L84.88 5.50L83.10 5.50Q83.10 4.31 81.87 4.31L81.87 4.31Q81.30 4.31 80.98 4.55Q80.67 4.79 80.67 5.19L80.67 5.19Q80.67 5.63 80.95 5.83Q81.24 6.03 82.03 6.09L82.03 6.09Q83.54 6.22 84.25 6.66Q84.97 7.11 84.97 8.18L84.97 8.18L84.97 8.27Q84.97 9.39 84.17 10.04Q83.38 10.68 81.87 10.68L81.87 10.68Q80.35 10.68 79.56 10.00Q78.78 9.31 78.78 8.23L78.78 8.23L78.78 8.18L80.58 8.18Q80.58 9.27 81.87 9.27Z"></path></g><defs data-v-fde0c5aa=""><linearGradient data-v-fde0c5aa="" gradientTransform="rotate(25)" id="54fd30c2-2bbf-45f0-848d-5b0fc75833b8" x1="0%" y1="0%" x2="100%" y2="0%"><stop data-v-fde0c5aa="" offset="0%" stop-color="#0015D6" stop-opacity="1"></stop><stop data-v-fde0c5aa="" offset="100%" stop-color="#0989FB" stop-opacity="1"></stop></linearGradient></defs><g data-v-fde0c5aa="" id="d829d5d2-2569-4c50-b749-4fd866e119d2" stroke="none" fill="url(#54fd30c2-2bbf-45f0-848d-5b0fc75833b8)" transform="matrix(0.9705389742882702,0,0,0.9705389742882702,101.4487909581948,71.36402157784897)"><path d="M66.82 91.39H33.18a3.57 3.57 0 01-2.11-.63c-.86 1.72.05 3.24 2.11 3.24h33.64c2.06 0 3-1.52 2.11-3.24a3.57 3.57 0 01-2.11.63zM66.82 88.49H33.18a3.35 3.35 0 01-2.29-.79c-.51 1.54.41 2.81 2.29 2.81h33.64c1.88 0 2.8-1.27 2.29-2.81a3.35 3.35 0 01-2.29.79zM50 65.41c-2.8 0-5.36 1-5.75 2.46-.46 1.66 2.08 3.21 5.75 3.21s6.21-1.55 5.75-3.21c-.39-1.43-2.95-2.46-5.75-2.46z"></path><path d="M68.92 84.56L57.27 61.45c-.12-.24-.79-.43-1.5-.43H44.23c-.71 0-1.38.19-1.5.43L31.08 84.56c-.87 1.73 0 3.26 2.1 3.26h33.64c2.06 0 2.97-1.53 2.1-3.26zm-12.05.88a1 1 0 00.33.57H43.4a1 1 0 00.32-.57c.75-4.6-2.57-7.59-7.28-7.59a1.35 1.35 0 00-.52.11l7-15.31a.69.69 0 00.22 0c2.39 0 4.44-.67 4.57-1.42h4.86c.14.75 2.19 1.42 4.58 1.42L64 77.85c-4.68 0-8 2.99-7.13 7.59zM37.72 71.39l5.01-9.94-5.01 9.94z"></path><path d="M94.05 25.42L54.45 6.23a8.66 8.66 0 00-8.9 0L6 25.42c-.45.28-.26 4 .27 4H10v2.18a4.08 4.08 0 004.08 4.08h.06v20.6H8.93a1.23 1.23 0 00-1.23 1.23v12.65a1.23 1.23 0 001.23 1.23h27.29l5.31-10.54c.53-1.05 2.07-1.16 2.7-1.16h11.54c.63 0 2.17.11 2.7 1.16l5.31 10.54h27.29a1.23 1.23 0 001.23-1.23V57.51a1.23 1.23 0 00-1.23-1.23h-5.21V35.64h.06A4.08 4.08 0 0090 31.56v-2.18h3.78c.53 0 .72-3.68.27-3.96zM45.43 56.28H23.27V35.64h.06a4.08 4.08 0 004.08-4.08v-2.18h13.88v2.18a4.08 4.08 0 004.08 4.08h.06zm4.57-35a5.53 5.53 0 115.53-5.53A5.53 5.53 0 0150 21.31zm26.73 35H54.57V35.64h.06a4.08 4.08 0 004.08-4.08v-2.18h13.88v2.18a4.08 4.08 0 004.08 4.08h.06z"></path></g><!----></svg>