<?xml version="1.0" encoding="UTF-8"?>
<svg version="1.1" xmlns="http://www.w3.org/2000/svg" width="548" height="411">
<path d="M0 0 C0.8804599 0.00087616 1.7609198 0.00175232 2.6680603 0.00265503 C32.34126569 0.09993981 61.65623519 5.63276971 83.4375 27.375 C84.01242187 27.93832031 84.58734375 28.50164063 85.1796875 29.08203125 C95.49255746 40.06283321 98.83944323 55.16768113 98.5859375 69.8203125 C96.6947223 102.36912144 79.24475753 128.76174328 56.0625 150.5625 C50.21878093 155.74952802 43.98298584 160.14341473 37.4375 164.375 C36.51710938 164.98085937 35.59671875 165.58671875 34.6484375 166.2109375 C8.70335987 182.36266189 -24.28482797 189.53341631 -54.51660156 189.61523438 C-56.66251191 189.62488759 -58.80744021 189.65597479 -60.953125 189.6875 C-81.3170334 189.84338392 -99.54226197 185.03570483 -114.54296875 170.44921875 C-118.59951351 165.93193064 -121.44915211 161.71752309 -121.75 155.5 C-121.6571875 153.953125 -121.6571875 153.953125 -121.5625 152.375 C-119.29296875 151.68359375 -119.29296875 151.68359375 -116.5625 151.375 C-114.67578125 152.59765625 -114.67578125 152.59765625 -112.875 154.4375 C-99.81562635 166.64570405 -83.09886429 169.94942039 -65.6171875 169.65234375 C-43.09066806 168.75002601 -20.73974613 162.21692572 -0.5625 152.375 C0.38616943 151.91504639 0.38616943 151.91504639 1.35400391 151.44580078 C16.14387801 144.17339009 28.59624804 134.77309133 40.4375 123.375 C41.09234375 122.78332031 41.7471875 122.19164063 42.421875 121.58203125 C56.11219803 108.86510275 66.17659953 89.41038751 66.875 70.75 C66.70578343 64.5993456 65.42685963 59.74442302 62.4375 54.375 C61.92316406 53.43914063 61.92316406 53.43914063 61.3984375 52.484375 C55.17358434 43.56877886 41.29936754 39.06461103 31.18359375 36.84765625 C-32.50880727 25.8849528 -98.73561959 57.296954 -149.57226562 92.95019531 C-173.66727949 110.19976608 -196.69669895 131.04554517 -204.1640625 160.76953125 C-206.76068226 177.74938793 -202.72328166 191.98461588 -192.77246094 205.76757812 C-187.48116296 212.79701838 -181.34476594 218.81033771 -174.5625 224.375 C-173.99611816 224.84309082 -173.42973633 225.31118164 -172.84619141 225.79345703 C-165.1537253 232.14419119 -157.37601898 238.32383843 -149.36328125 244.265625 C-141.90209109 249.8849314 -134.83186429 255.92430948 -127.94921875 262.234375 C-125.21091891 264.69032968 -122.39920572 267.03359211 -119.5625 269.375 C-98.36832896 258.03229507 -98.36832896 258.03229507 -77.34863281 246.37109375 C-75.75435978 245.48199671 -74.14005537 244.62903932 -72.5234375 243.78125 C-66.8125337 240.67562256 -63.4942801 237.13307591 -59.6015625 231.953125 C-50.27610511 220.1623168 -35.08337311 209.42237392 -20 207.5625 C-14.47299244 207.22706782 -10.0907472 207.25520174 -5.65234375 210.9765625 C2.02747706 218.8929281 1.66449902 227.05256622 1.5078125 237.62890625 C1.48460937 238.53511719 1.46140625 239.44132813 1.4375 240.375 C2.30761719 240.21451172 2.30761719 240.21451172 3.1953125 240.05078125 C8.5404351 239.23049016 11.78019918 239.19440432 16.4375 242.375 C19.29835609 246.66628414 18.89640684 250.05406765 17.93191528 254.93200684 C17.20912605 257.98336777 16.42823433 261.01466948 15.62890625 264.046875 C15.19964088 265.72417694 15.19964088 265.72417694 14.76170349 267.43536377 C13.54262943 272.19778489 12.30417478 276.95510924 11.06713867 281.71289062 C10.16414406 285.19747761 9.27132867 288.68456808 8.37890625 292.171875 C8.0997084 293.230578 7.82051056 294.28928101 7.53285217 295.38006592 C4.35157468 306.84734054 4.35157468 306.84734054 5.4375 318.375 C10.74885401 308.65923396 15.66139054 298.85650288 20.1875 288.75 C20.81622993 287.35510842 21.44522672 285.96033711 22.07446289 284.56567383 C23.817319 280.6971084 25.55175503 276.82481809 27.28424072 272.95159912 C28.50323717 270.22813075 29.72481723 267.50583125 30.94677734 264.78369141 C33.15808838 259.85591364 35.36381271 254.92566608 37.5657959 249.99371338 C38.42369195 248.07294611 39.28262242 246.15264045 40.1427002 244.23284912 C44.54853383 234.3909006 48.86369677 224.5209537 52.90625 214.5234375 C53.23374741 213.72068893 53.56124481 212.91794037 53.89866638 212.09086609 C55.84210874 207.21760307 57.29453563 202.41923599 58.5 197.3125 C59.95829742 191.81484778 59.95829742 191.81484778 62.0546875 189.890625 C63.875 189.0625 63.875 189.0625 67.4375 188.375 C68.17226563 188.20097656 68.90703125 188.02695313 69.6640625 187.84765625 C73.23725901 187.23870304 76.76108419 187.15184431 80.375 187.125 C81.41043945 187.0940625 81.41043945 187.0940625 82.46679688 187.0625 C87.19187487 187.02667002 90.54580603 187.64190194 94.4375 190.375 C96.52026354 194.82670834 94.58394776 198.98869849 93.0625 203.375 C87.51844092 219.88532978 87.74907937 236.51598049 95.4140625 252.35546875 C95.75179688 253.02191406 96.08953125 253.68835938 96.4375 254.375 C99.17338142 251.08883586 101.45782784 247.81879722 103.5390625 244.0859375 C104.1069751 243.07120361 104.6748877 242.05646973 105.26000977 241.01098633 C105.85483154 239.93486084 106.44965332 238.85873535 107.0625 237.75 C107.98857056 236.08070435 107.98857056 236.08070435 108.93334961 234.37768555 C110.77513116 231.04729175 112.60747513 227.71186543 114.4375 224.375 C114.94780762 223.45058105 115.45811523 222.52616211 115.98388672 221.57373047 C122.16927255 210.33357495 127.1528496 199.44884981 130.66796875 187.0625 C130.88026123 186.33442139 131.09255371 185.60634277 131.3112793 184.85620117 C131.71803765 183.44753279 132.10729612 182.03365018 132.47583008 180.61450195 C133.40030363 177.38758132 134.14259728 175.6133797 136.78125 173.48046875 C142.4280541 171.13040175 147.90086391 171.16197786 153.9375 171.125 C154.77925781 171.104375 155.62101562 171.08375 156.48828125 171.0625 C161.22708328 171.03264928 164.70903304 171.09039815 168.4375 174.375 C169.66559725 177.59773652 169.32204038 179.54571814 168.22265625 182.76171875 C167.94808594 183.60951904 167.67351562 184.45731934 167.390625 185.33081055 C167.09671875 186.23226807 166.8028125 187.13372559 166.5 188.0625 C163.52695559 197.78627223 162.56153716 206.27439146 163.4375 216.375 C163.54771484 217.71691406 163.54771484 217.71691406 163.66015625 219.0859375 C164.94779895 227.99583296 169.48044751 237.93942127 174.4375 245.375 C178.36636372 244.74105984 181.97368657 243.55877159 185.71679688 242.25463867 C212.86501718 232.79740581 241.43313711 232.94753131 267.75 245.125 C283.27496723 253.3923606 294.00597784 266.09609262 299.54296875 282.6875 C302.01857402 292.89261519 301.82239425 305.17460581 296.4375 314.375 C291.10474061 321.5299571 284.29629118 328.87636659 275.4375 331.375 C272.125 331.5 272.125 331.5 269.4375 331.375 C269.1075 330.055 268.7775 328.735 268.4375 327.375 C269.16195312 326.818125 269.88640625 326.26125 270.6328125 325.6875 C278.55916376 319.43096674 285.58679522 313.73894677 287.4375 303.375 C288.49048476 292.84515243 284.0247859 284.07847511 277.69140625 275.87890625 C266.0862111 262.98647974 247.05360352 257.11004654 230.15869141 256.19799805 C226.45965726 256.13072826 222.76212332 256.08237939 219.0625 256.0625 C218.39542023 256.05888458 217.72834045 256.05526917 217.04104614 256.05154419 C206.26370805 256.02806344 196.73849912 257.19662481 186.4375 260.375 C184.77558786 260.7312821 183.11041116 261.07457172 181.4375 261.375 C181.870625 262.64730469 181.870625 262.64730469 182.3125 263.9453125 C186.04995345 275.75462723 187.6809375 286.86157571 182.17578125 298.4921875 C173.02910491 313.6612822 156.35273333 323.89318604 139.4375 328.375 C134.70870295 328.98125603 130.88503204 329.02176963 126.5 327.0625 C121.6875 323.125 121.6875 323.125 120.4375 319.375 C118.981774 302.78926938 125.43864859 289.39683999 135.87109375 276.84326172 C140.38865904 271.52723648 145.02825117 266.79802114 150.4375 262.375 C149.82436264 258.36770938 148.51589033 255.29244486 146.6875 251.6875 C143.71248482 245.43710754 141.80247521 239.16498251 140.08691406 232.46801758 C139.80412598 231.36816528 139.80412598 231.36816528 139.515625 230.24609375 C139.35481445 229.59568115 139.19400391 228.94526855 139.02832031 228.27514648 C138.37431081 226.17177624 137.46827034 224.31808304 136.4375 222.375 C136.16188232 222.91688965 135.88626465 223.4587793 135.60229492 224.01708984 C130.59360843 233.82383161 125.50205468 243.54278218 119.75 252.9375 C119.30100342 253.68241699 118.85200684 254.42733398 118.3894043 255.19482422 C116.366371 258.49558217 114.3335425 261.60117263 111.79296875 264.52734375 C107.62613411 269.32827458 107.62613411 269.32827458 106.59765625 275.37304688 C107.43257487 279.27751926 108.73430307 282.99528294 110.03125 286.765625 C113.24548593 296.41644955 112.85511515 308.16513095 108.4375 317.375 C99.85842083 332.22766936 86.55169299 339.54438785 70.4375 344.375 C62.20215969 346.47740831 52.54990512 348.2223243 44.375 345.125 C41.25860983 343.26842713 40.70155639 342.62119176 39.4375 339.375 C38.83426955 329.8741204 44.61043657 324.17420128 50.4375 317.375 C51.15703857 316.52929443 51.15703857 316.52929443 51.89111328 315.66650391 C53.85753325 313.35861376 55.83034795 311.05654615 57.81567383 308.76489258 C61.61498198 304.37375386 65.30484879 299.90487905 68.9375 295.375 C69.67589111 294.45871826 69.67589111 294.45871826 70.42919922 293.52392578 C75.9699905 287.49642607 75.9699905 287.49642607 78.3828125 280.27734375 C77.97675781 279.30474609 77.97675781 279.30474609 77.5625 278.3125 C77.0984375 277.14847656 77.0984375 277.14847656 76.625 275.9609375 C75.79079474 274.14434579 74.93460014 272.33776904 74.0625 270.5390625 C69.03380279 260.14118338 66.22732948 249.55450034 63.4375 238.375 C63.1065332 239.14763184 62.77556641 239.92026367 62.43457031 240.71630859 C18.10159774 344.04295113 18.10159774 344.04295113 -0.5625 353.375 C-4.77969716 354.59084515 -7.65700216 354.70585498 -11.8125 353.1875 C-17.10468519 349.69946885 -19.28057746 346.8055823 -20.96875 340.72265625 C-22.27442086 333.36107775 -22.34039252 325.83474771 -22.5625 318.375 C-22.95518066 319.21160156 -23.34786133 320.04820312 -23.75244141 320.91015625 C-25.23254496 324.0521686 -26.72074576 327.19008238 -28.21435547 330.32568359 C-28.85559377 331.67604845 -29.49369474 333.02790825 -30.12841797 334.38134766 C-34.84817565 344.43777623 -39.41280212 353.66522156 -48.5625 360.375 C-54.41030342 362.32426781 -61.08461492 362.15507493 -66.9375 360.3125 C-78.43040193 351.82964381 -83.19100097 337.14883005 -86.15234375 323.6953125 C-88.40803362 305.43496596 -86.69643187 286.69300888 -80.5625 269.375 C-81.2330542 269.75833496 -81.9036084 270.14166992 -82.59448242 270.53662109 C-85.64444571 272.27772422 -88.69718338 274.01390512 -91.75 275.75 C-93.33264648 276.65492188 -93.33264648 276.65492188 -94.94726562 277.578125 C-96.47963867 278.44824219 -96.47963867 278.44824219 -98.04296875 279.3359375 C-98.98035889 279.87009277 -99.91774902 280.40424805 -100.88354492 280.95458984 C-103.39757666 282.28755591 -105.90112506 283.37461005 -108.5625 284.375 C-108.21316406 285.52097656 -107.86382812 286.66695313 -107.50390625 287.84765625 C-107.04400708 289.3775249 -106.58438646 290.90747731 -106.125 292.4375 C-105.89490234 293.18966797 -105.66480469 293.94183594 -105.42773438 294.71679688 C-98.73151097 317.13458829 -101.71949959 343.55475035 -112.53955078 364.24316406 C-125.19737724 386.76602977 -145.32518088 402.33296227 -170.00390625 409.46484375 C-184.50769552 413.17437492 -202.25405103 413.33832728 -215.9375 406.75 C-224.25894686 399.22107188 -229.61846045 389.70347458 -230.5625 378.375 C-230.62566406 377.63507813 -230.68882812 376.89515625 -230.75390625 376.1328125 C-231.59304639 357.8882817 -223.70003417 341.837086 -211.703125 328.62890625 C-207.37158912 324.03890969 -202.58802147 320.1773417 -197.5625 316.375 C-196.62535156 315.611875 -195.68820313 314.84875 -194.72265625 314.0625 C-179.04882189 301.47501912 -161.23849851 291.82613097 -143.5625 282.375 C-143.5625 281.715 -143.5625 281.055 -143.5625 280.375 C-145.7939369 278.51290438 -148.03366156 276.77789548 -150.375 275.0625 C-151.44838623 274.26670532 -151.44838623 274.26670532 -152.54345703 273.45483398 C-158.70675985 268.92236846 -165.00906817 264.60480571 -171.33764648 260.30786133 C-184.62312296 251.27653398 -197.48566188 241.97863517 -209.5625 231.375 C-210.29597656 230.75238281 -211.02945313 230.12976563 -211.78515625 229.48828125 C-227.24101926 216.30624301 -245.50618785 196.57229732 -247.79443359 175.2097168 C-249.57074075 145.45813004 -234.24766667 121.41818889 -215.12695312 99.74804688 C-209.27566251 93.18887811 -203.33773813 86.99017914 -196.5625 81.375 C-195.67949219 80.59253906 -194.79648438 79.81007813 -193.88671875 79.00390625 C-180.59594888 67.29221624 -165.82488082 57.21835745 -150.44628906 48.44921875 C-149.16376611 47.71786818 -147.88457748 46.98064627 -146.60839844 46.23828125 C-123.94158036 33.06066224 -100.13524373 22.45469928 -75.5625 13.375 C-74.70333984 13.05418457 -73.84417969 12.73336914 -72.95898438 12.40283203 C-49.44783924 3.72051597 -24.98469925 -0.06088879 0 0 Z M-36.5625 242.375 C-39.58695261 246.52887118 -42.10595136 250.86620969 -44.5625 255.375 C-45.18125 256.47972656 -45.8 257.58445312 -46.4375 258.72265625 C-56.18723559 277.02442283 -62.38652678 300.86429698 -56.5625 321.375 C-55.35921933 323.51643171 -54.02919837 325.39346057 -52.5625 327.375 C-43.4994367 323.48253051 -40.28420281 311.66354463 -36.8359375 303.12890625 C-36.07495456 301.21219321 -35.3173897 299.29412101 -34.5625 297.375 C-34.12711914 296.26882324 -33.69173828 295.16264648 -33.24316406 294.02294922 C-19.51773523 263.61438944 -19.51773523 263.61438944 -14.5625 231.375 C-15.58779958 230.14228572 -15.58779958 230.14228572 -17.75 230.125 C-25.52816012 230.81639201 -31.49039176 236.92543255 -36.5625 242.375 Z M159.4375 273.375 C149.82745621 281.83490557 142.60690424 292.88504514 139.4375 305.375 C139.4375 306.695 139.4375 308.015 139.4375 309.375 C145.93288629 308.37044114 151.00464219 305.21505223 155.28125 300.22265625 C160.17827403 293.20118797 162.51697039 285.96313939 161.4375 277.375 C160.49124132 275.16280408 160.49124132 275.16280408 159.4375 273.375 Z M-128.5625 294.375 C-130.31671405 295.11198447 -130.31671405 295.11198447 -132.203125 296.33203125 C-132.93724609 296.78022217 -133.67136719 297.22841309 -134.42773438 297.69018555 C-135.60819336 298.4313562 -135.60819336 298.4313562 -136.8125 299.1875 C-137.62009766 299.68870361 -138.42769531 300.18990723 -139.25976562 300.70629883 C-150.20466647 307.56845795 -160.65723386 315.07422325 -170.5625 323.375 C-171.39394531 324.05949219 -172.22539062 324.74398438 -173.08203125 325.44921875 C-184.61171182 335.31409137 -194.3573294 348.04859429 -195.765625 363.62109375 C-195.872627 368.62343748 -195.49884133 372.12236773 -192.5625 376.375 C-187.09050657 380.3348709 -182.08671145 380.08032016 -175.5625 379.375 C-157.92041283 375.24704646 -144.29621321 363.13138255 -134.5625 348.375 C-130.2436087 341.02629825 -127.39172383 333.68841279 -125.5625 325.375 C-125.335625 324.405625 -125.10875 323.43625 -124.875 322.4375 C-123.95715812 313.44264959 -124.15253552 304.1371548 -126.5625 295.375 C-127.5525 294.88 -127.5525 294.88 -128.5625 294.375 Z M86.4375 298.375 C84.80405638 300.419103 83.20873311 302.48033036 81.625 304.5625 C77.11391336 310.43303013 72.32926392 315.91017875 67.1472168 321.19799805 C64.05565769 324.22435624 64.05565769 324.22435624 63.4375 328.375 C73.4763299 323.35558505 81.85104782 315.74140493 86.4375 305.375 C87.08597675 302.93777196 87.32732124 300.90911144 87.4375 298.375 C87.1075 298.375 86.7775 298.375 86.4375 298.375 Z " fill="#CD699B" transform="translate(247.5625,-0.375)"/>
</svg>
